<?xml version="1.0" encoding="UTF-8" standalone="no"?>
<svg
   xmlns:dc="http://purl.org/dc/elements/1.1/"
   xmlns:cc="http://creativecommons.org/ns#"
   xmlns:rdf="http://www.w3.org/1999/02/22-rdf-syntax-ns#"
   xmlns:svg="http://www.w3.org/2000/svg"
   xmlns="http://www.w3.org/2000/svg"
   xmlns:sodipodi="http://sodipodi.sourceforge.net/DTD/sodipodi-0.dtd"
   xmlns:inkscape="http://www.inkscape.org/namespaces/inkscape"
   version="1.1"
   x="0px"
   y="0px"
   viewBox="0 0 55.638001 52.013008"
   enable-background="new 0 0 100 100"
   xml:space="preserve"
   id="svg24"
   sodipodi:docname="iconLemur.svg"
   width="55.638"
   height="52.013008"
   inkscape:version="0.92.2 5c3e80d, 2017-08-06"><metadata
     id="metadata30"><rdf:RDF><cc:Work
         rdf:about=""><dc:format>image/svg+xml</dc:format><dc:type
           rdf:resource="http://purl.org/dc/dcmitype/StillImage" /></cc:Work></rdf:RDF></metadata><defs
     id="defs28" /><sodipodi:namedview
     pagecolor="#ffffff"
     bordercolor="#666666"
     borderopacity="1"
     objecttolerance="10"
     gridtolerance="10"
     guidetolerance="10"
     inkscape:pageopacity="0"
     inkscape:pageshadow="2"
     inkscape:window-width="1440"
     inkscape:window-height="785"
     id="namedview26"
     showgrid="false"
     inkscape:zoom="2.36"
     inkscape:cx="35.039421"
     inkscape:cy="4.0379966"
     inkscape:window-x="0"
     inkscape:window-y="1"
     inkscape:window-maximized="1"
     inkscape:current-layer="svg24" /><g
     id="g22"
     transform="matrix(0.61384595,0,0,0.61384595,-2.8731815,-4.6860998)"><path
       d="m 25.607,7.634 -1.273,8.973 c 1.023,0.209 1.835,0.623 2.498,1.287 l 7.097,-5.682 C 32.032,9.925 29.378,8.245 25.607,7.634 Z"
       id="path2"
       inkscape:connector-curvature="0" /><path
       d="m 37.976,21.437 -8.818,1.984 c 0.331,1.597 0.62,3.532 0.919,5.837 l 8.982,-1.137 c -0.272,-2.14 -0.583,-4.431 -1.083,-6.684 z"
       id="path4"
       inkscape:connector-curvature="0" /><path
       d="m 15.385,37.176 -8.657,2.67 c 0.763,2.382 1.708,4.645 2.791,6.681 l 7.938,-4.335 C 16.663,40.685 15.962,38.98 15.385,37.176 Z"
       id="path6"
       inkscape:connector-curvature="0" /><path
       d="m 40.213,35.91 -8.896,1.689 c 0.466,2.362 1.081,4.719 1.981,6.985 l 8.377,-3.479 C 41.042,39.482 40.576,37.731 40.213,35.91 Z"
       id="path8"
       inkscape:connector-curvature="0" /><path
       d="M 13.867,24.827 4.888,23.625 c -0.281,2.397 -0.269,4.916 -0.009,7.446 l 9.003,-1.046 c -0.181,-1.804 -0.195,-3.564 -0.015,-5.198 z"
       id="path10"
       inkscape:connector-curvature="0" /><path
       d="m 14.076,52.783 c 1.759,1.475 4.372,1.428 6.053,-0.21 1.679,-1.636 1.795,-4.247 0.366,-6.044 z"
       id="path12"
       inkscape:connector-curvature="0" /><path
       d="M 18.415,17.091 15.495,8.52 c -2.979,1.107 -5.436,3.008 -7.252,5.617 l 7.565,4.961 c 0.684,-0.917 1.549,-1.571 2.607,-2.007 z"
       id="path14"
       inkscape:connector-curvature="0" /><circle
       cx="89.286003"
       cy="58.596001"
       r="0.278"
       id="circle16" /><circle
       cx="83.294998"
       cy="58.596001"
       r="0.278"
       id="circle18" /><path
       d="m 93.104,51.086 c -0.008,1.431 -1.559,3.668 -2.301,2.981 -1.146,-1.173 -2.744,-1.903 -4.514,-1.903 -1.77,0 -3.367,0.73 -4.514,1.903 -0.742,0.718 -2.293,-1.551 -2.3,-2.981 -0.87,0.396 -1.558,1.112 -1.924,1.997 -4.46,-2.716 -12.251,-6.564 -20.602,-6.564 -3.309,0 -6.379,1.015 -8.921,2.748 l -2.965,-2.69 -6.499,6.167 3.767,3.473 c -0.8,1.895 -1.242,3.976 -1.242,6.161 0,5.475 3.604,10.313 6.992,13.151 8.927,7.48 -4.088,13.33 -3.359,15.759 0.21,0.7 0.874,0.996 1.714,1.063 0,0 0.035,0.006 0.097,0.016 h 8.908 c 0,-1.619 -4.807,-2.108 -4.807,-2.108 0,0 11.785,-6.829 12.303,-12.021 0.393,-3.94 -3.916,-15.555 -3.916,-15.555 0,0 2.059,2.479 3.567,7.49 l 7.019,1.649 c -3.531,14.554 1.67,20.544 3.999,20.544 1.513,0 5.244,0 5.244,0 -0.056,-1.824 -3.843,-2.108 -3.843,-2.108 0,0 -5.375,-10.749 5.999,-17.374 6.274,-3.654 7.386,-6.713 8.039,-8.206 -0.201,0.088 -0.422,0.163 -0.653,0.231 0.286,-0.414 0.457,-0.914 0.457,-1.456 0,-0.971 -1.208,-2.229 -1.963,-2.923 l -0.598,0.597 -0.596,-0.597 c -0.757,0.694 -1.963,1.952 -1.963,2.923 0,0.572 0.194,1.095 0.512,1.522 -4.731,-0.947 -3.19,-4.794 -3.413,-5.55 -0.252,-0.857 -2.909,-3.855 -1.835,-4.771 0.354,-0.302 1.256,1.685 3.006,1.77 0.152,0.008 0.313,-0.002 0.479,-0.022 -0.702,0.535 -1.489,1.328 -1.489,2.195 0,1.272 2.305,2.304 2.305,2.304 0,0 2.305,-1.031 2.305,-2.304 0,-1.113 -1.087,-2.137 -1.675,-2.611 0.065,-0.027 0.132,-0.051 0.197,-0.079 1.145,-0.761 1.39,-1.221 2.168,-1.221 0.778,0 1.023,0.46 2.168,1.221 0.148,0.065 0.3,0.125 0.452,0.182 -0.759,0.504 -1.929,1.452 -1.929,2.509 0,1.272 2.305,2.304 2.305,2.304 0,0 2.305,-1.031 2.305,-2.304 0,-0.849 -0.632,-1.639 -1.194,-2.182 0.061,0.002 0.124,0.012 0.183,0.009 1.75,-0.085 2.652,-2.071 3.006,-1.77 0.752,0.642 -0.324,2.303 -1.124,3.536 0.042,-0.023 0.078,-0.047 0.125,-0.069 1.574,-0.452 2.733,-1.888 2.733,-3.608 0,-1.528 -0.91,-2.834 -2.215,-3.428 z m -8.98,7.511 c 0,0.457 -0.371,0.829 -0.829,0.829 -0.457,0 -0.829,-0.372 -0.829,-0.829 0,-0.458 0.372,-0.83 0.829,-0.83 0.458,0 0.829,0.372 0.829,0.83 z m 5.162,0.829 c -0.457,0 -0.829,-0.372 -0.829,-0.829 0,-0.458 0.372,-0.83 0.829,-0.83 0.458,0 0.829,0.372 0.829,0.83 0,0.457 -0.371,0.829 -0.829,0.829 z"
       id="path20"
       inkscape:connector-curvature="0" /></g></svg>